<mxfile host="app.diagrams.net" modified="2021-06-14T04:55:52.991Z" agent="5.0 (Macintosh; Intel Mac OS X 10_15_7) AppleWebKit/537.36 (KHTML, like Gecko) Chrome/91.0.4472.77 Safari/537.36" etag="7LggrSpu5Exdd5ohwVf6" version="14.7.7" type="github">
  <diagram id="kgpKYQtTHZ0yAKxKKP6v" name="Page-1">
    <mxGraphModel dx="1796" dy="534" grid="1" gridSize="10" guides="1" tooltips="1" connect="1" arrows="1" fold="1" page="1" pageScale="1" pageWidth="850" pageHeight="1100" math="0" shadow="0">
      <root>
        <mxCell id="0" />
        <mxCell id="1" parent="0" />
        <mxCell id="N1lgmwDdBhY6PN8yiJ6b-56" style="edgeStyle=orthogonalEdgeStyle;rounded=0;orthogonalLoop=1;jettySize=auto;html=1;exitX=1;exitY=0.5;exitDx=0;exitDy=0;entryX=0;entryY=0.5;entryDx=0;entryDy=0;labelBackgroundColor=none;fontSize=12;fontColor=#FF8000;labelBorderColor=#FFFFFF;strokeColor=#FFFFFF;fontStyle=1" edge="1" parent="1" source="N1lgmwDdBhY6PN8yiJ6b-2" target="N1lgmwDdBhY6PN8yiJ6b-55">
          <mxGeometry relative="1" as="geometry" />
        </mxCell>
        <mxCell id="N1lgmwDdBhY6PN8yiJ6b-2" value="继续遍历剩余&lt;br style=&quot;font-size: 12px;&quot;&gt;newChildren" style="shape=hexagon;perimeter=hexagonPerimeter;whiteSpace=wrap;html=1;rounded=0;shadow=0;labelBackgroundColor=none;strokeWidth=1;fontFamily=Verdana;fontSize=12;align=center;fontColor=#FF8000;labelBorderColor=#FFFFFF;strokeColor=#FFFFFF;fontStyle=1" vertex="1" parent="1">
          <mxGeometry x="-180" y="20" width="120" height="80" as="geometry" />
        </mxCell>
        <mxCell id="N1lgmwDdBhY6PN8yiJ6b-3" style="edgeStyle=orthogonalEdgeStyle;rounded=1;html=1;labelBackgroundColor=none;startArrow=none;startFill=0;startSize=5;endArrow=classicThin;endFill=1;endSize=5;jettySize=auto;orthogonalLoop=1;strokeWidth=1;fontFamily=Verdana;fontSize=12;fontColor=#FF8000;labelBorderColor=#FFFFFF;strokeColor=#FFFFFF;fontStyle=1" edge="1" parent="1" source="N1lgmwDdBhY6PN8yiJ6b-4" target="N1lgmwDdBhY6PN8yiJ6b-8">
          <mxGeometry relative="1" as="geometry" />
        </mxCell>
        <mxCell id="N1lgmwDdBhY6PN8yiJ6b-4" value="updateElement&lt;br style=&quot;font-size: 12px;&quot;&gt;找到复用节点？" style="rounded=1;whiteSpace=wrap;html=1;shadow=0;labelBackgroundColor=none;strokeWidth=1;fontFamily=Verdana;fontSize=12;align=center;fontColor=#FF8000;labelBorderColor=#FFFFFF;strokeColor=#FFFFFF;fontStyle=1" vertex="1" parent="1">
          <mxGeometry x="170" y="20" width="120" height="80" as="geometry" />
        </mxCell>
        <mxCell id="N1lgmwDdBhY6PN8yiJ6b-5" style="edgeStyle=orthogonalEdgeStyle;rounded=1;html=1;labelBackgroundColor=none;startArrow=none;startFill=0;startSize=5;endArrow=classicThin;endFill=1;endSize=5;jettySize=auto;orthogonalLoop=1;strokeWidth=1;fontFamily=Verdana;fontSize=12;fontColor=#FF8000;labelBorderColor=#FFFFFF;strokeColor=#FFFFFF;fontStyle=1" edge="1" parent="1" source="N1lgmwDdBhY6PN8yiJ6b-8" target="N1lgmwDdBhY6PN8yiJ6b-12">
          <mxGeometry relative="1" as="geometry" />
        </mxCell>
        <mxCell id="N1lgmwDdBhY6PN8yiJ6b-6" style="edgeStyle=orthogonalEdgeStyle;rounded=1;html=1;labelBackgroundColor=none;startArrow=none;startFill=0;startSize=5;endArrow=classicThin;endFill=1;endSize=5;jettySize=auto;orthogonalLoop=1;strokeWidth=1;fontFamily=Verdana;fontSize=12;fontColor=#FF8000;labelBorderColor=#FFFFFF;strokeColor=#FFFFFF;fontStyle=1" edge="1" parent="1" source="N1lgmwDdBhY6PN8yiJ6b-8" target="N1lgmwDdBhY6PN8yiJ6b-10">
          <mxGeometry relative="1" as="geometry" />
        </mxCell>
        <mxCell id="N1lgmwDdBhY6PN8yiJ6b-7" style="edgeStyle=orthogonalEdgeStyle;rounded=1;html=1;labelBackgroundColor=none;startArrow=none;startFill=0;startSize=5;endArrow=classicThin;endFill=1;endSize=5;jettySize=auto;orthogonalLoop=1;strokeWidth=1;fontFamily=Verdana;fontSize=12;fontColor=#FF8000;labelBorderColor=#FFFFFF;strokeColor=#FFFFFF;fontStyle=1" edge="1" parent="1" source="N1lgmwDdBhY6PN8yiJ6b-8" target="N1lgmwDdBhY6PN8yiJ6b-18">
          <mxGeometry relative="1" as="geometry" />
        </mxCell>
        <mxCell id="N1lgmwDdBhY6PN8yiJ6b-8" value="OR" style="ellipse;whiteSpace=wrap;html=1;rounded=1;shadow=0;labelBackgroundColor=none;strokeWidth=1;fontFamily=Verdana;fontSize=12;align=center;fontColor=#FF8000;labelBorderColor=#FFFFFF;strokeColor=#FFFFFF;fontStyle=1" vertex="1" parent="1">
          <mxGeometry x="210" y="120" width="40" height="40" as="geometry" />
        </mxCell>
        <mxCell id="N1lgmwDdBhY6PN8yiJ6b-9" style="edgeStyle=orthogonalEdgeStyle;rounded=1;html=1;labelBackgroundColor=none;startArrow=none;startFill=0;startSize=5;endArrow=classicThin;endFill=1;endSize=5;jettySize=auto;orthogonalLoop=1;strokeWidth=1;fontFamily=Verdana;fontSize=12;fontColor=#FF8000;labelBorderColor=#FFFFFF;strokeColor=#FFFFFF;fontStyle=1" edge="1" parent="1" source="N1lgmwDdBhY6PN8yiJ6b-10" target="N1lgmwDdBhY6PN8yiJ6b-14">
          <mxGeometry relative="1" as="geometry" />
        </mxCell>
        <mxCell id="N1lgmwDdBhY6PN8yiJ6b-10" value="useFiber&lt;br style=&quot;font-size: 12px;&quot;&gt;复用节点，index=0" style="shape=hexagon;perimeter=hexagonPerimeter;whiteSpace=wrap;html=1;rounded=0;shadow=0;labelBackgroundColor=none;strokeWidth=1;fontFamily=Verdana;fontSize=12;align=center;fontColor=#FF8000;labelBorderColor=#FFFFFF;strokeColor=#FFFFFF;fontStyle=1" vertex="1" parent="1">
          <mxGeometry x="60" y="190" width="120" height="80" as="geometry" />
        </mxCell>
        <mxCell id="N1lgmwDdBhY6PN8yiJ6b-11" style="edgeStyle=orthogonalEdgeStyle;rounded=1;html=1;labelBackgroundColor=none;startArrow=none;startFill=0;startSize=5;endArrow=classicThin;endFill=1;endSize=5;jettySize=auto;orthogonalLoop=1;strokeWidth=1;fontFamily=Verdana;fontSize=12;fontColor=#FF8000;labelBorderColor=#FFFFFF;strokeColor=#FFFFFF;fontStyle=1" edge="1" parent="1" source="N1lgmwDdBhY6PN8yiJ6b-12" target="N1lgmwDdBhY6PN8yiJ6b-16">
          <mxGeometry relative="1" as="geometry" />
        </mxCell>
        <mxCell id="N1lgmwDdBhY6PN8yiJ6b-12" value="&lt;div style=&quot;font-size: 12px; line-height: 24px;&quot;&gt;&lt;span style=&quot;font-size: 12px;&quot;&gt;createFiberFromElement&lt;/span&gt;&lt;/div&gt;" style="shape=hexagon;perimeter=hexagonPerimeter;whiteSpace=wrap;html=1;rounded=0;shadow=0;labelBackgroundColor=none;strokeWidth=1;fontFamily=Helvetica;fontSize=12;align=center;fontColor=#FF8000;labelBorderColor=#FFFFFF;strokeColor=#FFFFFF;fontStyle=1" vertex="1" parent="1">
          <mxGeometry x="290" y="190" width="120" height="80" as="geometry" />
        </mxCell>
        <mxCell id="N1lgmwDdBhY6PN8yiJ6b-13" style="edgeStyle=orthogonalEdgeStyle;rounded=1;html=1;labelBackgroundColor=none;startArrow=none;startFill=0;startSize=5;endArrow=classicThin;endFill=1;endSize=5;jettySize=auto;orthogonalLoop=1;strokeWidth=1;fontFamily=Verdana;fontSize=12;fontColor=#FF8000;labelBorderColor=#FFFFFF;strokeColor=#FFFFFF;fontStyle=1" edge="1" parent="1" source="N1lgmwDdBhY6PN8yiJ6b-14" target="N1lgmwDdBhY6PN8yiJ6b-18">
          <mxGeometry relative="1" as="geometry">
            <Array as="points">
              <mxPoint x="120" y="440" />
            </Array>
          </mxGeometry>
        </mxCell>
        <mxCell id="N1lgmwDdBhY6PN8yiJ6b-14" value="根据lastPlaceIndex&lt;br style=&quot;font-size: 12px;&quot;&gt;确定节点是否需要移动" style="rounded=1;whiteSpace=wrap;html=1;shadow=0;labelBackgroundColor=none;strokeWidth=1;fontFamily=Verdana;fontSize=12;align=center;fontColor=#FF8000;labelBorderColor=#FFFFFF;strokeColor=#FFFFFF;fontStyle=1" vertex="1" parent="1">
          <mxGeometry x="60" y="300" width="120" height="80" as="geometry" />
        </mxCell>
        <mxCell id="N1lgmwDdBhY6PN8yiJ6b-15" style="edgeStyle=orthogonalEdgeStyle;rounded=1;html=1;labelBackgroundColor=none;startArrow=none;startFill=0;startSize=5;endArrow=classicThin;endFill=1;endSize=5;jettySize=auto;orthogonalLoop=1;strokeWidth=1;fontFamily=Verdana;fontSize=12;fontColor=#FF8000;labelBorderColor=#FFFFFF;strokeColor=#FFFFFF;fontStyle=1" edge="1" parent="1" source="N1lgmwDdBhY6PN8yiJ6b-16" target="N1lgmwDdBhY6PN8yiJ6b-18">
          <mxGeometry relative="1" as="geometry">
            <Array as="points">
              <mxPoint x="350" y="440" />
            </Array>
          </mxGeometry>
        </mxCell>
        <mxCell id="N1lgmwDdBhY6PN8yiJ6b-16" value="&lt;div style=&quot;font-family: menlo, monaco, &amp;quot;courier new&amp;quot;, monospace; line-height: 24px; font-size: 12px;&quot;&gt;&lt;font style=&quot;font-size: 12px;&quot;&gt;placeChild&lt;/font&gt;&lt;/div&gt;&lt;font style=&quot;font-size: 12px;&quot;&gt;给节点添加正确index&lt;/font&gt;" style="rounded=1;whiteSpace=wrap;html=1;shadow=0;labelBackgroundColor=none;strokeWidth=1;fontFamily=Verdana;fontSize=12;align=center;fontColor=#FF8000;labelBorderColor=#FFFFFF;strokeColor=#FFFFFF;fontStyle=1" vertex="1" parent="1">
          <mxGeometry x="290" y="300" width="120" height="80" as="geometry" />
        </mxCell>
        <mxCell id="N1lgmwDdBhY6PN8yiJ6b-17" style="edgeStyle=orthogonalEdgeStyle;rounded=1;html=1;labelBackgroundColor=none;startArrow=none;startFill=0;startSize=5;endArrow=classicThin;endFill=1;endSize=5;jettySize=auto;orthogonalLoop=1;strokeWidth=1;fontFamily=Verdana;fontSize=12;fontColor=#FF8000;labelBorderColor=#FFFFFF;strokeColor=#FFFFFF;fontStyle=1" edge="1" parent="1" source="N1lgmwDdBhY6PN8yiJ6b-18" target="N1lgmwDdBhY6PN8yiJ6b-20">
          <mxGeometry relative="1" as="geometry" />
        </mxCell>
        <mxCell id="N1lgmwDdBhY6PN8yiJ6b-18" value="OR" style="ellipse;whiteSpace=wrap;html=1;rounded=1;shadow=0;labelBackgroundColor=none;strokeWidth=1;fontFamily=Verdana;fontSize=12;align=center;fontColor=#FF8000;labelBorderColor=#FFFFFF;strokeColor=#FFFFFF;fontStyle=1" vertex="1" parent="1">
          <mxGeometry x="210" y="420" width="40" height="40" as="geometry" />
        </mxCell>
        <mxCell id="N1lgmwDdBhY6PN8yiJ6b-19" style="edgeStyle=orthogonalEdgeStyle;rounded=1;html=1;labelBackgroundColor=none;startArrow=none;startFill=0;startSize=5;endArrow=classicThin;endFill=1;endSize=5;jettySize=auto;orthogonalLoop=1;strokeWidth=1;fontFamily=Verdana;fontSize=12;fontColor=#FF8000;labelBorderColor=#FFFFFF;strokeColor=#FFFFFF;fontStyle=1" edge="1" parent="1" source="N1lgmwDdBhY6PN8yiJ6b-20" target="N1lgmwDdBhY6PN8yiJ6b-22">
          <mxGeometry relative="1" as="geometry" />
        </mxCell>
        <mxCell id="N1lgmwDdBhY6PN8yiJ6b-20" value="使用&lt;br style=&quot;font-size: 12px;&quot;&gt;previoudNewFiber串联同级节点" style="shape=hexagon;perimeter=hexagonPerimeter;whiteSpace=wrap;html=1;rounded=0;shadow=0;labelBackgroundColor=none;strokeWidth=1;fontFamily=Verdana;fontSize=12;align=center;fontColor=#FF8000;labelBorderColor=#FFFFFF;strokeColor=#FFFFFF;fontStyle=1" vertex="1" parent="1">
          <mxGeometry x="170" y="500" width="120" height="80" as="geometry" />
        </mxCell>
        <mxCell id="N1lgmwDdBhY6PN8yiJ6b-22" value="提交commit进行dom节点更新" style="rounded=1;whiteSpace=wrap;html=1;shadow=0;labelBackgroundColor=none;strokeWidth=1;fontFamily=Verdana;fontSize=12;align=center;fontColor=#FF8000;labelBorderColor=#FFFFFF;strokeColor=#FFFFFF;fontStyle=1" vertex="1" parent="1">
          <mxGeometry x="170" y="610" width="120" height="80" as="geometry" />
        </mxCell>
        <mxCell id="N1lgmwDdBhY6PN8yiJ6b-57" style="edgeStyle=orthogonalEdgeStyle;rounded=0;orthogonalLoop=1;jettySize=auto;html=1;exitX=1;exitY=0.5;exitDx=0;exitDy=0;entryX=0;entryY=0.5;entryDx=0;entryDy=0;labelBackgroundColor=none;fontSize=12;fontColor=#FF8000;labelBorderColor=#FFFFFF;strokeColor=#FFFFFF;fontStyle=1" edge="1" parent="1" source="N1lgmwDdBhY6PN8yiJ6b-55" target="N1lgmwDdBhY6PN8yiJ6b-4">
          <mxGeometry relative="1" as="geometry" />
        </mxCell>
        <mxCell id="N1lgmwDdBhY6PN8yiJ6b-55" value="&lt;p style=&quot;font-size: 12px; line-height: 24px;&quot;&gt;&lt;font face=&quot;Helvetica&quot; style=&quot;font-size: 12px;&quot;&gt;updateFromMap&lt;br style=&quot;font-size: 12px;&quot;&gt;建立key-fiber Map&lt;/font&gt;&lt;/p&gt;" style="rounded=1;whiteSpace=wrap;html=1;shadow=0;labelBackgroundColor=none;strokeWidth=1;fontFamily=Verdana;fontSize=12;align=center;fontColor=#FF8000;labelBorderColor=#FFFFFF;strokeColor=#FFFFFF;fontStyle=1" vertex="1" parent="1">
          <mxGeometry y="20" width="120" height="80" as="geometry" />
        </mxCell>
      </root>
    </mxGraphModel>
  </diagram>
</mxfile>
